# xmcd
#
# Track frame offsets:
#	150
#	19783
#	45458
#	62244
#	86044
#	111463
#	135589
#	153421
#	176942
#	199315
#	220644
#
# Disc length: 3142 seconds
#
# Revision: 0
# Processed by: cddbd v1.5.2PL0 Copyright (c) Steve Scherf et al.
# Submitted via: dBpowerAMP V4.0
#
DISCID=9e0c440b
DTITLE=Kevin Phillips and The It Men - Big Chop Suey
DYEAR=2006
DGENRE=Blues
TTITLE0=Gravy Train
TTITLE1=Big Chop Suey
TTITLE2=New Shoes
TTITLE3=Couch Potato Day
TTITLE4=D.W.'S Pastiche
TTITLE5=Change Me
TTITLE6=Porter
TTITLE7=Kitchen
TTITLE8=Headache
TTITLE9=Waiting For Spring
TTITLE10=Kick Ass
EXTD=
EXTT0=
EXTT1=
EXTT2=
EXTT3=
EXTT4=
EXTT5=
EXTT6=
EXTT7=
EXTT8=
EXTT9=
EXTT10=
PLAYORDER=
